# xmcd CD database file
#
# Track frame offsets:
#	150
#	18116
#	31502
#	53424
#	77979
#	107897
#	120724
#	144647
#	155406
#	180585
#	195513
#
# Disc length: 2805 seconds
#
# Revision: 0
# Processed by: cddbd v1.5.2PL0 Copyright (c) Steve Scherf et al.
# Submitted via: CDex 1.51
#
DISCID=800af30b
DTITLE=Placido Domingo - Vienna Choir Boys - Ave Maria
DYEAR=1979
DGENRE=New Age
TTITLE0=Pueri Concinite - Johann Ritter Von Herbeck
TTITLE1=Adeste Fideles - Johann Ritter Von Herbeck
TTITLE2=Panis Angelicus - Cesar Franck
TTITLE3=Ave Maria - Franz Schubert
TTITLE4=Selig Sind, Die Verfolgung Leiden - Wilhelm Keinzl
TTITLE5=Largo - Georg Friedrich Handel
TTITLE6=Omnes De Saba Venient - Joseph Eybler
TTITLE7=Ave Maria - Johann Sebastian Bach and Charles Gounod
TTITLE8=Crucifix - Jean-Baptiste Faure
TTITLE9=Agnus Dei - Georges Bizet
TTITLE10=A Mighty Fortress Is Our God - Martin Luther
EXTD=YEAR: 1979
EXTT0=
EXTT1=
EXTT2=
EXTT3=
EXTT4=
EXTT5=
EXTT6=
EXTT7=
EXTT8=
EXTT9=
EXTT10=
PLAYORDER=
